<svg xmlns="http://www.w3.org/2000/svg" width="480.455" height="480.455"><path d="M236.154 44.328l224.33 267.652 19.972-16.742-230.917-275.51c-3.463-4.125-8.485-6.431-13.67-6.416-5.235.048-10.173 2.481-13.548 6.667L0 295.432l20.279 16.366 215.875-267.47z"/><path d="M232.876 68.73L64.439 277.42 97.73 467.144h268.231l48.978-189.724L239.97 68.667c-1.983-2.369-5.149-2.338-7.094.063zm-54.7 146.254c15.044-7.853 36.239 3.042 47.337 24.326 11.093 21.272 7.901 44.885-7.14 52.73-15.043 7.855-36.231-3.042-47.329-24.324-11.108-21.277-7.901-44.887 7.132-52.732zM123.09 323.909c-11.093-21.276-7.898-44.89 7.127-52.735 15.041-7.851 36.244 3.042 47.337 24.329 11.091 21.271 7.899 44.884-7.127 52.729-15.041 7.846-36.237-3.046-47.337-24.323zm227.14-52.735c15.041 7.846 18.24 31.453 7.135 52.735-11.101 21.276-32.286 32.169-47.327 24.323-15.046-7.846-18.245-31.458-7.134-52.729 11.095-21.287 32.285-32.18 47.326-24.329zm-95.273-31.864c11.091-21.276 32.297-32.171 47.327-24.326 15.036 7.845 18.235 31.456 7.135 52.732-11.091 21.277-32.296 32.169-47.337 24.324-15.025-7.846-18.232-31.458-7.125-52.73zm37.563 111.72c0 2.732-.279 5.388-.762 7.978 14.645 1.6 20.505 19.418 20.505 34.495 0 16.143-13.081 29.244-29.239 29.244-14.462 0-22.76-1.747-40.098-10.801-3.364.848-25.494 10.801-40.101 10.801-16.147 0-29.236-13.102-29.236-29.244 0-15.646 6.746-33.886 22.198-34.668-.467-2.533-.751-5.134-.751-7.805 0-23.841 24.902-48.743 48.743-48.743 23.843 0 48.741 24.902 48.741 48.743z"/></svg>